<svg version="1.1" id="Layer_1" xmlns="http://www.w3.org/2000/svg" xmlns:xlink="http://www.w3.org/1999/xlink" x="0px" y="0px"
	 width="100%" viewBox="0 0 448 448" enable-background="new 0 0 448 448" xml:space="preserve">
<path fill="#000000" opacity="1.000000" stroke="none" 
	d="
M173.597046,363.699982 
	C154.882080,366.387146 136.592636,368.949982 118.314369,371.590240 
	C109.154114,372.913422 103.735405,367.758331 105.011475,358.655884 
	C106.513542,347.941315 108.121086,337.241455 109.700333,326.537811 
	C111.328735,315.501007 112.999977,304.470520 114.612503,293.431396 
	C116.430183,280.987946 121.701057,270.300446 130.610947,261.388794 
	C161.227005,230.766708 191.831360,200.132935 222.416412,169.479889 
	C251.120728,140.711746 279.765381,111.884048 308.497375,83.143623 
	C319.444305,72.193466 330.118652,60.912418 341.704956,50.673595 
	C358.827637,35.542286 379.015808,31.763472 400.510162,39.099155 
	C422.049164,46.450096 435.461975,61.997410 439.962097,84.323265 
	C444.238037,105.536819 437.672852,123.914261 422.545349,139.066650 
	C361.806610,199.905228 300.942566,260.618713 240.132141,321.385773 
	C233.886200,327.627228 227.369431,333.635376 221.535034,340.243347 
	C208.843216,354.617889 193.160736,362.523895 173.597046,363.699982 
M216.714264,207.214172 
	C198.334076,225.592468 179.938507,243.955414 161.584976,262.360291 
	C157.229065,266.728363 157.287903,267.408478 161.495438,271.618835 
	C176.217300,286.350555 190.927887,301.093628 205.683624,315.791351 
	C206.924484,317.027344 207.848755,318.820892 210.181229,318.976379 
	C211.194427,318.060211 212.340347,317.112152 213.387115,316.065002 
	C269.455139,259.974518 325.498535,203.859406 381.626373,147.828857 
	C384.253510,145.206253 384.332886,143.668335 381.648804,141.025009 
	C366.455383,126.062218 351.327728,111.028099 336.444092,95.758614 
	C332.934387,92.157913 331.001892,92.711365 327.745453,95.988319 
	C290.985413,132.980042 254.082169,169.829514 216.714264,207.214172 
M402.385406,65.087036 
	C385.020538,54.256649 366.941284,56.627350 352.589539,71.242645 
	C349.365906,74.525482 349.448486,76.563560 352.632416,79.711723 
	C368.012543,94.918922 383.202423,110.318436 398.477539,125.632057 
	C399.275665,126.432182 400.035095,127.413048 401.375397,127.350952 
	C423.116699,111.518127 423.890320,81.977333 402.385406,65.087036 
M166.245682,341.679871 
	C174.669113,339.851288 183.779327,340.514313 191.127182,335.489319 
	C174.235504,318.730865 157.673950,302.299927 140.355347,285.117920 
	C133.842087,304.775055 133.740601,325.692505 129.820328,346.753235 
	C142.713608,344.934448 154.037781,343.337006 166.245682,341.679871 
z"/>
<path fill="#000000" opacity="1.000000" stroke="none" 
	d="
M296.999817,425.384338 
	C244.009720,425.387817 191.519608,425.407990 139.029510,425.388306 
	C90.752075,425.370209 51.416553,393.053131 42.089489,345.669342 
	C41.128696,340.788300 40.590813,335.817841 40.593819,330.788940 
	C40.630852,268.800751 40.523445,206.812363 40.633469,144.824326 
	C40.717049,97.734818 76.038498,56.881077 122.550644,49.883842 
	C127.471786,49.143513 132.493637,48.793056 137.471954,48.761360 
	C157.633987,48.632996 177.798447,48.814739 197.959198,48.608807 
	C202.608154,48.561317 204.771469,49.784809 204.334198,54.751774 
	C203.999344,58.555466 204.088745,62.420254 204.295380,66.241318 
	C204.510483,70.219154 202.752930,71.420181 198.958664,71.399101 
	C179.296432,71.289864 159.632965,71.307594 139.970337,71.382957 
	C100.574944,71.533958 70.436539,96.865967 63.668301,135.517578 
	C63.241161,137.956879 63.265038,140.494370 63.264061,142.986252 
	C63.239498,205.640457 63.018787,268.295776 63.330158,330.948425 
	C63.482761,361.653870 85.702370,390.357147 115.067818,399.329895 
	C122.762665,401.681122 130.580795,402.788116 138.664200,402.774719 
	C198.985947,402.674713 259.307983,402.755676 319.629791,402.685394 
	C357.589661,402.641174 388.927612,374.789734 393.812775,337.043396 
	C395.532379,323.756500 394.316315,310.428986 394.603973,297.123505 
	C394.823608,286.963806 394.736053,276.793610 394.572113,266.631531 
	C394.513367,262.990997 395.784882,261.491058 399.491150,261.661896 
	C403.980743,261.868835 408.487305,261.738739 412.986115,261.702637 
	C415.510162,261.682404 417.270020,262.479431 417.189758,265.359619 
	C416.448486,291.968719 420.017853,318.823792 415.221985,345.156647 
	C408.141418,384.034729 384.468903,409.090790 347.083710,421.428223 
	C330.863800,426.780945 314.110260,425.107056 296.999817,425.384338 
z"/>
</svg>